<?xml version="1.0" encoding="UTF-8" standalone="no"?><!DOCTYPE svg PUBLIC "-//W3C//DTD SVG 1.1//EN" "http://www.w3.org/Graphics/SVG/1.1/DTD/svg11.dtd"><svg width="100%" height="100%" viewBox="0 0 415 133" version="1.1" xmlns="http://www.w3.org/2000/svg" xmlns:xlink="http://www.w3.org/1999/xlink" xml:space="preserve" xmlns:serif="http://www.serif.com/" style="fill-rule:evenodd;clip-rule:evenodd;stroke-linejoin:round;stroke-miterlimit:1.41421;"><g><g><path d="M170.202,69.401l-15.246,0c-1.893,0 -3.408,1.59 -3.408,3.484l0,46.044c0,1.893 1.515,3.408 3.408,3.408l15.246,0c18.135,0 26.773,-13.722 26.773,-26.468c0,-12.823 -8.638,-26.468 -26.773,-26.468Zm-0.835,46.498l-10.926,0l0,-40.06l10.926,0c12.672,0 20.79,8.194 20.79,20.03c0,11.836 -8.118,20.03 -20.79,20.03Z" style="fill:#203341;fill-rule:nonzero;"/><path d="M231.873,68.642c-16.237,0 -26.318,11.37 -26.621,27.227c0.303,15.857 10.384,27.227 26.621,27.227c16.16,0 26.317,-11.37 26.62,-27.227c-0.303,-15.857 -10.46,-27.227 -26.62,-27.227Zm0,48.016c-12.595,0 -19.727,-9.105 -19.727,-20.789c0,-11.684 7.132,-20.789 19.727,-20.789c12.519,0 19.726,9.105 19.726,20.789c0,11.684 -7.207,20.789 -19.726,20.789Z" style="fill:#203341;fill-rule:nonzero;"/><path d="M312.657,69.021c-1.894,0 -3.409,1.593 -3.409,3.489l0,40.954l-29.212,-42.167c-1.062,-1.365 -2.504,-2.276 -4.172,-2.276l-0.984,0c-2.727,0 -4.924,2.276 -4.924,5.006l0,45.277c0,1.896 1.515,3.413 3.409,3.413c1.893,0 3.484,-1.517 3.484,-3.413l0,-41.03l29.364,42.395c0.911,1.213 2.352,2.048 4.02,2.048l0.909,0c2.727,0 5,-2.2 5,-4.93l0,-45.277c0,-1.896 -1.591,-3.489 -3.485,-3.489Z" style="fill:#203341;fill-rule:nonzero;"/><path d="M364.688,115.899l-26.928,0l0,-16.849l24.197,0c1.821,0 3.262,-1.363 3.262,-3.181c0,-1.818 -1.441,-3.257 -3.262,-3.257l-24.197,0l0,-16.773l26.928,0c1.821,0 3.262,-1.364 3.262,-3.181c0,-1.818 -1.441,-3.257 -3.262,-3.257l-30.412,0c-1.894,0 -3.409,1.59 -3.409,3.484l0,46.044c0,1.893 1.515,3.408 3.409,3.408l30.412,0c1.821,0 3.262,-1.363 3.262,-3.181c0,-1.818 -1.441,-3.257 -3.262,-3.257Z" style="fill:#203341;fill-rule:nonzero;"/></g><g><path d="M113.856,12.684c10.032,0.093 19.812,5.28 25.482,13.897c7.368,11.197 6.342,27.215 -3.115,37.404c-0.255,0.274 -0.516,0.543 -0.78,0.809l-1.301,1.301c-1.071,0.981 -1.499,1.109 -2.287,1.32c-2.973,0.797 -6.419,-1.699 -6.419,-4.926c0,-1.041 0.325,-2.072 0.922,-2.925c0.227,-0.324 0.304,-0.39 0.571,-0.681c2.466,-2.465 4.684,-5.205 5.904,-8.425c3.227,-8.517 -0.11,-18.98 -7.867,-24.153c-7.712,-5.142 -18.865,-4.25 -25.707,2.549l-54.111,54.111c-0.291,0.267 -0.356,0.344 -0.681,0.571c-2.868,2.009 -7.672,0.083 -8.006,-3.733c-0.103,-1.183 0.222,-2.397 0.903,-3.369c0.227,-0.325 0.305,-0.39 0.572,-0.681c18.083,-18.084 36.11,-36.224 54.251,-54.25c5.646,-5.543 13.403,-8.746 21.289,-8.819c0.127,0 0.253,0 0.38,0Z" style="fill:#ff4954;fill-rule:nonzero;"/><path d="M111.847,75.749c0.295,0.026 0.37,0.026 0.662,0.081c3.327,0.63 5.342,5.134 3.125,8.078c-0.179,0.238 -0.235,0.288 -0.435,0.506l-33.956,34.58c-0.747,0.712 -0.929,0.772 -1.351,0.984c-1.698,0.853 -3.867,0.658 -5.39,-0.509c-0.237,-0.181 -0.287,-0.238 -0.504,-0.442l-21.638,-21.637c-0.84,-0.898 -0.987,-1.273 -1.223,-1.967c-1.088,-3.207 1.842,-7.177 5.495,-6.696c1.103,0.145 2.121,0.682 2.941,1.45l17.998,17.998l30.35,-30.907c0,0 2.161,-1.561 3.926,-1.519Z" style="fill:#ff4954;fill-rule:nonzero;"/></g></g><rect id="Artboard1" x="0" y="0" width="414.309" height="132.049" style="fill:none;"/></svg>